<svg xmlns="http://www.w3.org/2000/svg" viewBox="0 0 640 360"><defs><linearGradient id="sky" x1="0" y1="0" x2="0" y2="1"><stop stop-color="#8bc2d8"/><stop offset="1" stop-color="#f2c39b"/></linearGradient><linearGradient id="road" x1="0" y1="0" x2="1" y2="1"><stop stop-color="#8f796a"/><stop offset="1" stop-color="#3f4a50"/></linearGradient></defs><rect width="640" height="360" fill="url(#sky)"/><rect y="220" width="640" height="140" fill="url(#road)"/><g fill="#b98762"><rect x="0" y="100" width="135" height="145"/><rect x="470" y="72" width="170" height="175"/><rect x="150" y="138" width="92" height="93"/><rect x="372" y="128" width="83" height="102"/></g><g fill="#775944"><rect x="18" y="122" width="35" height="48"/><rect x="74" y="117" width="38" height="54"/><rect x="494" y="102" width="42" height="57"/><rect x="558" y="99" width="45" height="62"/></g><path d="M250 360l62-104 58 0 60 104z" fill="#d0b090" opacity=".55"/><g transform="translate(334 210) rotate(-8)"><rect x="0" y="0" width="205" height="32" rx="10" fill="#1e2630"/><rect x="80" y="-14" width="64" height="18" rx="6" fill="#2e3945"/><rect x="174" y="8" width="100" height="13" rx="5" fill="#111820"/><rect x="12" y="25" width="45" height="70" rx="10" fill="#222c35"/></g><circle cx="320" cy="180" r="16" fill="none" stroke="#fff" stroke-width="2" opacity=".75"/><path d="M320 154v14M320 192v14M294 180h14M332 180h14" stroke="#fff" stroke-width="2" opacity=".75"/><rect x="18" y="18" width="110" height="34" rx="17" fill="#121d34" opacity=".72"/><text x="35" y="41" fill="#fff" font-family="sans-serif" font-weight="700" font-size="18">FPS LIVE</text></svg>